<?xml version="1.0" encoding="utf-8"?><svg xmlns="http://www.w3.org/2000/svg" xmlns:xlink="http://www.w3.org/1999/xlink"><symbol viewBox="0 0 512 512" id="lock" xmlns="http://www.w3.org/2000/svg"><path d="M437.333 192h-32v-42.667C405.333 66.99 338.344 0 256 0S106.667 66.99 106.667 149.333V192h-32A10.66 10.66 0 0 0 64 202.667v266.667C64 492.865 83.135 512 106.667 512h298.667C428.865 512 448 492.865 448 469.333V202.667A10.66 10.66 0 0 0 437.333 192zM287.938 414.823a10.67 10.67 0 0 1-10.604 11.844h-42.667a10.67 10.67 0 0 1-10.604-11.844l6.729-60.51c-10.927-7.948-17.458-20.521-17.458-34.313 0-23.531 19.135-42.667 42.667-42.667s42.667 19.135 42.667 42.667c0 13.792-6.531 26.365-17.458 34.313l6.728 60.51zM341.333 192H170.667v-42.667C170.667 102.281 208.948 64 256 64s85.333 38.281 85.333 85.333V192z"/></symbol><symbol viewBox="0 0 53 53" id="user-logo" xmlns="http://www.w3.org/2000/svg"><path d="M18.613 41.552l-7.907 4.313a7.106 7.106 0 0 0-1.269.903A26.377 26.377 0 0 0 26.5 53c6.454 0 12.367-2.31 16.964-6.144a7.015 7.015 0 0 0-1.394-.934l-8.467-4.233a3.229 3.229 0 0 1-1.785-2.888v-3.322c.238-.271.51-.619.801-1.03a19.482 19.482 0 0 0 2.632-5.304c1.086-.335 1.886-1.338 1.886-2.53v-3.546c0-.78-.347-1.477-.886-1.965v-5.126s1.053-7.977-9.75-7.977-9.75 7.977-9.75 7.977v5.126a2.644 2.644 0 0 0-.886 1.965v3.546c0 .934.491 1.756 1.226 2.231.886 3.857 3.206 6.633 3.206 6.633v3.24a3.232 3.232 0 0 1-1.684 2.833z" fill="#e7eced"/><path d="M26.953.004C12.32-.246.254 11.414.004 26.047-.138 34.344 3.56 41.801 9.448 46.76a7.041 7.041 0 0 1 1.257-.894l7.907-4.313a3.23 3.23 0 0 0 1.683-2.835v-3.24s-2.321-2.776-3.206-6.633a2.66 2.66 0 0 1-1.226-2.231v-3.546c0-.78.347-1.477.886-1.965v-5.126S15.696 8 26.499 8s9.75 7.977 9.75 7.977v5.126c.54.488.886 1.185.886 1.965v3.546c0 1.192-.8 2.195-1.886 2.53a19.482 19.482 0 0 1-2.632 5.304c-.291.411-.563.759-.801 1.03V38.8c0 1.223.691 2.342 1.785 2.888l8.467 4.233a7.05 7.05 0 0 1 1.39.932c5.71-4.762 9.399-11.882 9.536-19.9C53.246 12.32 41.587.254 26.953.004z" fill="#556080"/></symbol><symbol viewBox="0 0 258.75 258.75" id="user-name" xmlns="http://www.w3.org/2000/svg"><circle cx="129.375" cy="60" r="60"/><path d="M129.375 150c-60.061 0-108.75 48.689-108.75 108.75h217.5c0-60.061-48.689-108.75-108.75-108.75z"/></symbol></svg>